<?xml version="1.0" standalone="no"?>
<!DOCTYPE svg PUBLIC "-//W3C//DTD SVG 20010904//EN"
 "http://www.w3.org/TR/2001/REC-SVG-20010904/DTD/svg10.dtd">
<svg version="1.0" xmlns="http://www.w3.org/2000/svg"
 width="357.000000pt" height="357.000000pt" viewBox="0 0 357.000000 357.000000"
 preserveAspectRatio="xMidYMid meet">
<metadata>
Created by potrace 1.11, written by Peter Selinger 2001-2013
</metadata>
<g transform="translate(0.000000,357.000000) scale(0.100000,-0.100000)"
fill="#000000" stroke="none">
<path d="M614 2870 c-29 -12 -54 -49 -54 -81 0 -43 35 -77 98 -95 62 -18 95
-42 120 -89 9 -16 161 -460 338 -985 l322 -955 43 -3 44 -3 188 633 188 633
-1 260 -2 260 -66 -232 c-37 -128 -70 -233 -73 -233 -3 0 -75 197 -159 438
-84 240 -155 443 -158 450 -3 9 -93 12 -406 11 -220 0 -411 -4 -422 -9z"/>
<path d="M2038 1891 c-3 -1129 7 -1018 -97 -1047 -77 -22 -103 -48 -99 -98 2
-29 10 -44 31 -60 28 -21 39 -21 485 -24 251 -2 472 0 490 3 47 9 72 37 72 83
0 47 -26 75 -88 93 -77 22 -72 -36 -72 928 0 626 3 867 11 885 8 17 28 31 58
42 65 24 91 50 91 91 0 47 -14 69 -51 82 -21 7 -165 11 -430 11 l-399 0 -2
-989z"/>
<path d="M808 1580 c-3 -526 -3 -536 -25 -590 -29 -72 -71 -121 -144 -171 -59
-40 -60 -41 -57 -82 3 -37 7 -44 38 -60 31 -16 63 -17 298 -15 l264 3 24 28
c13 15 24 36 24 46 0 28 -36 68 -97 107 -73 47 -109 88 -133 152 -18 48 -20
78 -20 346 l0 292 -84 240 -84 239 -4 -535z"/>
</g>
</svg>
